<mxfile host="app.diagrams.net" modified="2023-09-11T14:19:38.997Z" agent="Mozilla/5.0 (Windows NT 10.0; Win64; x64) AppleWebKit/537.36 (KHTML, like Gecko) Chrome/116.0.0.0 Safari/537.36" etag="snWeTGIWDNWXbohRclEl" version="21.7.4" type="device">
  <diagram id="C5RBs43oDa-KdzZeNtuy" name="Page-1">
    <mxGraphModel dx="2148" dy="740" grid="1" gridSize="10" guides="1" tooltips="1" connect="1" arrows="1" fold="1" page="1" pageScale="1" pageWidth="827" pageHeight="1169" math="0" shadow="0">
      <root>
        <mxCell id="WIyWlLk6GJQsqaUBKTNV-0" />
        <mxCell id="WIyWlLk6GJQsqaUBKTNV-1" parent="WIyWlLk6GJQsqaUBKTNV-0" />
        <mxCell id="xKQEIfEpdPocmmlh1qDN-5" style="edgeStyle=none;curved=1;rounded=0;orthogonalLoop=1;jettySize=auto;html=1;exitX=0;exitY=1;exitDx=0;exitDy=0;fontSize=12;startSize=8;endSize=8;labelBackgroundColor=none;fontColor=default;" parent="WIyWlLk6GJQsqaUBKTNV-1" target="xKQEIfEpdPocmmlh1qDN-3" edge="1">
          <mxGeometry relative="1" as="geometry">
            <mxPoint x="354" y="180.0000000000001" as="sourcePoint" />
          </mxGeometry>
        </mxCell>
        <mxCell id="xKQEIfEpdPocmmlh1qDN-6" style="edgeStyle=none;curved=1;rounded=0;orthogonalLoop=1;jettySize=auto;html=1;exitX=1;exitY=1;exitDx=0;exitDy=0;fontSize=12;startSize=8;endSize=8;labelBackgroundColor=none;fontColor=default;" parent="WIyWlLk6GJQsqaUBKTNV-1" target="xKQEIfEpdPocmmlh1qDN-4" edge="1">
          <mxGeometry relative="1" as="geometry">
            <mxPoint x="474" y="180.0000000000001" as="sourcePoint" />
          </mxGeometry>
        </mxCell>
        <mxCell id="xKQEIfEpdPocmmlh1qDN-22" style="edgeStyle=none;curved=1;rounded=0;orthogonalLoop=1;jettySize=auto;html=1;entryX=0.5;entryY=0;entryDx=0;entryDy=0;fontSize=12;startSize=8;endSize=8;labelBackgroundColor=none;fontColor=default;" parent="WIyWlLk6GJQsqaUBKTNV-1" source="xKQEIfEpdPocmmlh1qDN-3" target="xKQEIfEpdPocmmlh1qDN-9" edge="1">
          <mxGeometry relative="1" as="geometry" />
        </mxCell>
        <mxCell id="xKQEIfEpdPocmmlh1qDN-3" value="User" style="rounded=1;whiteSpace=wrap;html=1;fontSize=16;labelBackgroundColor=none;" parent="WIyWlLk6GJQsqaUBKTNV-1" vertex="1">
          <mxGeometry x="18" y="260" width="120" height="60" as="geometry" />
        </mxCell>
        <mxCell id="xKQEIfEpdPocmmlh1qDN-4" value="Admin" style="rounded=1;whiteSpace=wrap;html=1;fontSize=16;labelBackgroundColor=none;" parent="WIyWlLk6GJQsqaUBKTNV-1" vertex="1">
          <mxGeometry x="720" y="260" width="120" height="60" as="geometry" />
        </mxCell>
        <mxCell id="xKQEIfEpdPocmmlh1qDN-14" style="edgeStyle=none;curved=1;rounded=0;orthogonalLoop=1;jettySize=auto;html=1;entryX=1;entryY=0.5;entryDx=0;entryDy=0;fontSize=12;startSize=8;endSize=8;labelBackgroundColor=none;fontColor=default;" parent="WIyWlLk6GJQsqaUBKTNV-1" source="xKQEIfEpdPocmmlh1qDN-9" target="xKQEIfEpdPocmmlh1qDN-10" edge="1">
          <mxGeometry relative="1" as="geometry" />
        </mxCell>
        <mxCell id="xKQEIfEpdPocmmlh1qDN-17" style="edgeStyle=none;curved=1;rounded=0;orthogonalLoop=1;jettySize=auto;html=1;exitX=0;exitY=1;exitDx=0;exitDy=0;entryX=1;entryY=0;entryDx=0;entryDy=0;fontSize=12;startSize=8;endSize=8;labelBackgroundColor=none;fontColor=default;" parent="WIyWlLk6GJQsqaUBKTNV-1" source="xKQEIfEpdPocmmlh1qDN-9" target="xKQEIfEpdPocmmlh1qDN-11" edge="1">
          <mxGeometry relative="1" as="geometry" />
        </mxCell>
        <mxCell id="xKQEIfEpdPocmmlh1qDN-20" style="edgeStyle=none;curved=1;rounded=0;orthogonalLoop=1;jettySize=auto;html=1;fontSize=12;startSize=8;endSize=8;labelBackgroundColor=none;fontColor=default;" parent="WIyWlLk6GJQsqaUBKTNV-1" source="xKQEIfEpdPocmmlh1qDN-9" target="xKQEIfEpdPocmmlh1qDN-13" edge="1">
          <mxGeometry relative="1" as="geometry" />
        </mxCell>
        <mxCell id="xKQEIfEpdPocmmlh1qDN-9" value="Login or Create Account or Stranger?" style="rhombus;whiteSpace=wrap;html=1;fontSize=16;rounded=0;labelBackgroundColor=none;" parent="WIyWlLk6GJQsqaUBKTNV-1" vertex="1">
          <mxGeometry x="5" y="350" width="146" height="130" as="geometry" />
        </mxCell>
        <mxCell id="xKQEIfEpdPocmmlh1qDN-10" value="name&lt;br&gt;email&lt;br&gt;phone&lt;br&gt;password" style="shape=parallelogram;perimeter=parallelogramPerimeter;whiteSpace=wrap;html=1;fixedSize=1;fontSize=16;rounded=0;labelBackgroundColor=none;" parent="WIyWlLk6GJQsqaUBKTNV-1" vertex="1">
          <mxGeometry x="-166" y="385" width="120" height="60" as="geometry" />
        </mxCell>
        <mxCell id="xKQEIfEpdPocmmlh1qDN-71" style="edgeStyle=none;curved=1;rounded=0;orthogonalLoop=1;jettySize=auto;html=1;entryX=0;entryY=0.5;entryDx=0;entryDy=0;fontSize=12;startSize=8;endSize=8;exitX=0.25;exitY=1;exitDx=0;exitDy=0;" parent="WIyWlLk6GJQsqaUBKTNV-1" source="xKQEIfEpdPocmmlh1qDN-11" target="xKQEIfEpdPocmmlh1qDN-68" edge="1">
          <mxGeometry relative="1" as="geometry">
            <Array as="points">
              <mxPoint x="-140" y="620" />
              <mxPoint x="-140" y="650" />
              <mxPoint x="-140" y="660" />
              <mxPoint x="-140" y="670" />
              <mxPoint x="-140" y="730" />
              <mxPoint x="-136" y="730" />
            </Array>
          </mxGeometry>
        </mxCell>
        <mxCell id="xKQEIfEpdPocmmlh1qDN-11" value="email&lt;br&gt;password" style="shape=parallelogram;perimeter=parallelogramPerimeter;whiteSpace=wrap;html=1;fixedSize=1;fontSize=16;rounded=0;labelBackgroundColor=none;" parent="WIyWlLk6GJQsqaUBKTNV-1" vertex="1">
          <mxGeometry x="-166" y="520" width="120" height="60" as="geometry" />
        </mxCell>
        <mxCell id="xKQEIfEpdPocmmlh1qDN-69" style="edgeStyle=none;curved=1;rounded=0;orthogonalLoop=1;jettySize=auto;html=1;entryX=1;entryY=0.5;entryDx=0;entryDy=0;fontSize=12;startSize=8;endSize=8;" parent="WIyWlLk6GJQsqaUBKTNV-1" source="xKQEIfEpdPocmmlh1qDN-13" target="xKQEIfEpdPocmmlh1qDN-68" edge="1">
          <mxGeometry relative="1" as="geometry">
            <Array as="points">
              <mxPoint x="80" y="730" />
              <mxPoint x="60" y="730" />
            </Array>
          </mxGeometry>
        </mxCell>
        <mxCell id="xKQEIfEpdPocmmlh1qDN-13" value="name" style="shape=parallelogram;perimeter=parallelogramPerimeter;whiteSpace=wrap;html=1;fixedSize=1;fontSize=16;rounded=0;labelBackgroundColor=none;" parent="WIyWlLk6GJQsqaUBKTNV-1" vertex="1">
          <mxGeometry x="14" y="545" width="120" height="60" as="geometry" />
        </mxCell>
        <mxCell id="xKQEIfEpdPocmmlh1qDN-15" value="create account" style="text;html=1;strokeColor=none;fillColor=none;align=center;verticalAlign=middle;whiteSpace=wrap;rounded=0;fontSize=16;labelBackgroundColor=none;" parent="WIyWlLk6GJQsqaUBKTNV-1" vertex="1">
          <mxGeometry x="-46" y="380" width="60" height="30" as="geometry" />
        </mxCell>
        <mxCell id="xKQEIfEpdPocmmlh1qDN-18" value="Login" style="text;html=1;strokeColor=none;fillColor=none;align=center;verticalAlign=middle;whiteSpace=wrap;rounded=0;fontSize=16;rotation=-40;labelBackgroundColor=none;" parent="WIyWlLk6GJQsqaUBKTNV-1" vertex="1">
          <mxGeometry x="-42" y="458.54" width="60" height="40" as="geometry" />
        </mxCell>
        <mxCell id="xKQEIfEpdPocmmlh1qDN-19" value="&amp;nbsp;as Stranger" style="text;html=1;strokeColor=none;fillColor=none;align=center;verticalAlign=middle;whiteSpace=wrap;rounded=0;fontSize=16;labelBackgroundColor=none;" parent="WIyWlLk6GJQsqaUBKTNV-1" vertex="1">
          <mxGeometry x="14" y="490" width="60" height="30" as="geometry" />
        </mxCell>
        <mxCell id="xKQEIfEpdPocmmlh1qDN-32" style="edgeStyle=none;curved=1;rounded=0;orthogonalLoop=1;jettySize=auto;html=1;exitX=0;exitY=1;exitDx=0;exitDy=0;fontSize=12;startSize=8;endSize=8;labelBackgroundColor=none;fontColor=default;" parent="WIyWlLk6GJQsqaUBKTNV-1" edge="1">
          <mxGeometry relative="1" as="geometry">
            <mxPoint x="-140" y="825" as="targetPoint" />
            <mxPoint x="-100" y="784.9999999999998" as="sourcePoint" />
          </mxGeometry>
        </mxCell>
        <mxCell id="xKQEIfEpdPocmmlh1qDN-33" style="edgeStyle=none;curved=1;rounded=0;orthogonalLoop=1;jettySize=auto;html=1;exitX=1;exitY=1;exitDx=0;exitDy=0;fontSize=12;startSize=8;endSize=8;labelBackgroundColor=none;fontColor=default;" parent="WIyWlLk6GJQsqaUBKTNV-1" edge="1">
          <mxGeometry relative="1" as="geometry">
            <mxPoint y="825" as="targetPoint" />
            <mxPoint x="-40" y="784.9999999999998" as="sourcePoint" />
          </mxGeometry>
        </mxCell>
        <mxCell id="0iYnoLVcJNjw29xdgMoQ-2" style="edgeStyle=none;curved=1;rounded=0;orthogonalLoop=1;jettySize=auto;html=1;entryX=1;entryY=0.25;entryDx=0;entryDy=0;fontSize=12;startSize=8;endSize=8;" edge="1" parent="WIyWlLk6GJQsqaUBKTNV-1" source="xKQEIfEpdPocmmlh1qDN-34" target="0iYnoLVcJNjw29xdgMoQ-0">
          <mxGeometry relative="1" as="geometry" />
        </mxCell>
        <mxCell id="0iYnoLVcJNjw29xdgMoQ-4" style="edgeStyle=none;curved=1;rounded=0;orthogonalLoop=1;jettySize=auto;html=1;entryX=0.5;entryY=0;entryDx=0;entryDy=0;fontSize=12;startSize=8;endSize=8;" edge="1" parent="WIyWlLk6GJQsqaUBKTNV-1" source="xKQEIfEpdPocmmlh1qDN-34">
          <mxGeometry relative="1" as="geometry">
            <mxPoint x="-250" y="960" as="targetPoint" />
          </mxGeometry>
        </mxCell>
        <mxCell id="xKQEIfEpdPocmmlh1qDN-34" value="Add items&amp;nbsp; to cart" style="rounded=0;whiteSpace=wrap;html=1;fontSize=16;labelBackgroundColor=none;" parent="WIyWlLk6GJQsqaUBKTNV-1" vertex="1">
          <mxGeometry x="-230" y="825" width="120" height="60" as="geometry" />
        </mxCell>
        <mxCell id="xKQEIfEpdPocmmlh1qDN-44" style="edgeStyle=none;curved=1;rounded=0;orthogonalLoop=1;jettySize=auto;html=1;fontSize=12;startSize=8;endSize=8;labelBackgroundColor=none;fontColor=default;" parent="WIyWlLk6GJQsqaUBKTNV-1" target="xKQEIfEpdPocmmlh1qDN-37" edge="1">
          <mxGeometry relative="1" as="geometry">
            <mxPoint x="50" y="885" as="sourcePoint" />
          </mxGeometry>
        </mxCell>
        <mxCell id="xKQEIfEpdPocmmlh1qDN-38" style="edgeStyle=none;curved=1;rounded=0;orthogonalLoop=1;jettySize=auto;html=1;exitX=0;exitY=1;exitDx=0;exitDy=0;fontSize=12;startSize=8;endSize=8;labelBackgroundColor=none;fontColor=default;" parent="WIyWlLk6GJQsqaUBKTNV-1" source="xKQEIfEpdPocmmlh1qDN-37" edge="1">
          <mxGeometry relative="1" as="geometry">
            <mxPoint x="53" y="1090" as="targetPoint" />
          </mxGeometry>
        </mxCell>
        <mxCell id="xKQEIfEpdPocmmlh1qDN-46" style="edgeStyle=none;curved=1;rounded=0;orthogonalLoop=1;jettySize=auto;html=1;exitX=1;exitY=1;exitDx=0;exitDy=0;fontSize=12;startSize=8;endSize=8;labelBackgroundColor=none;fontColor=default;" parent="WIyWlLk6GJQsqaUBKTNV-1" source="xKQEIfEpdPocmmlh1qDN-37" edge="1">
          <mxGeometry relative="1" as="geometry">
            <mxPoint x="213" y="1090" as="targetPoint" />
          </mxGeometry>
        </mxCell>
        <mxCell id="xKQEIfEpdPocmmlh1qDN-37" value="Gcash Payment?" style="rhombus;whiteSpace=wrap;html=1;fontSize=16;rounded=0;labelBackgroundColor=none;" parent="WIyWlLk6GJQsqaUBKTNV-1" vertex="1">
          <mxGeometry x="78" y="960" width="110" height="90" as="geometry" />
        </mxCell>
        <mxCell id="xKQEIfEpdPocmmlh1qDN-53" style="edgeStyle=none;curved=1;rounded=0;orthogonalLoop=1;jettySize=auto;html=1;fontSize=12;startSize=8;endSize=8;labelBackgroundColor=none;fontColor=default;" parent="WIyWlLk6GJQsqaUBKTNV-1" source="xKQEIfEpdPocmmlh1qDN-40" edge="1">
          <mxGeometry relative="1" as="geometry">
            <mxPoint x="33" y="1209" as="targetPoint" />
          </mxGeometry>
        </mxCell>
        <mxCell id="xKQEIfEpdPocmmlh1qDN-40" value="`REFERRENCE NUMBER`" style="shape=parallelogram;perimeter=parallelogramPerimeter;whiteSpace=wrap;html=1;fixedSize=1;fontSize=16;rounded=0;labelBackgroundColor=none;" parent="WIyWlLk6GJQsqaUBKTNV-1" vertex="1">
          <mxGeometry x="-42" y="1090" width="150" height="65" as="geometry" />
        </mxCell>
        <mxCell id="xKQEIfEpdPocmmlh1qDN-41" value="True" style="text;html=1;strokeColor=none;fillColor=none;align=center;verticalAlign=middle;whiteSpace=wrap;rounded=0;fontSize=16;labelBackgroundColor=none;" parent="WIyWlLk6GJQsqaUBKTNV-1" vertex="1">
          <mxGeometry x="33" y="1040" width="60" height="30" as="geometry" />
        </mxCell>
        <mxCell id="PnPtJ1oFxIr9ThaWhj_N-104" style="edgeStyle=none;curved=1;rounded=0;orthogonalLoop=1;jettySize=auto;html=1;entryX=0;entryY=0.25;entryDx=0;entryDy=0;fontSize=12;startSize=8;endSize=8;" parent="WIyWlLk6GJQsqaUBKTNV-1" source="xKQEIfEpdPocmmlh1qDN-45" target="PnPtJ1oFxIr9ThaWhj_N-95" edge="1">
          <mxGeometry relative="1" as="geometry" />
        </mxCell>
        <mxCell id="xKQEIfEpdPocmmlh1qDN-45" value="Add items to cart" style="rounded=0;whiteSpace=wrap;html=1;fontSize=16;labelBackgroundColor=none;" parent="WIyWlLk6GJQsqaUBKTNV-1" vertex="1">
          <mxGeometry x="-15" y="825" width="120" height="60" as="geometry" />
        </mxCell>
        <mxCell id="xKQEIfEpdPocmmlh1qDN-55" style="edgeStyle=none;curved=1;rounded=0;orthogonalLoop=1;jettySize=auto;html=1;entryX=0.5;entryY=0;entryDx=0;entryDy=0;fontSize=12;startSize=8;endSize=8;labelBackgroundColor=none;fontColor=default;" parent="WIyWlLk6GJQsqaUBKTNV-1" source="xKQEIfEpdPocmmlh1qDN-47" target="xKQEIfEpdPocmmlh1qDN-54" edge="1">
          <mxGeometry relative="1" as="geometry" />
        </mxCell>
        <mxCell id="xKQEIfEpdPocmmlh1qDN-47" value="Expected `CASH` to pay&amp;nbsp;&lt;br&gt;COD payment" style="shape=parallelogram;perimeter=parallelogramPerimeter;whiteSpace=wrap;html=1;fixedSize=1;fontSize=16;rounded=0;labelBackgroundColor=none;" parent="WIyWlLk6GJQsqaUBKTNV-1" vertex="1">
          <mxGeometry x="133" y="1090" width="180" height="60" as="geometry" />
        </mxCell>
        <mxCell id="xKQEIfEpdPocmmlh1qDN-60" style="edgeStyle=none;curved=1;rounded=0;orthogonalLoop=1;jettySize=auto;html=1;entryX=0.5;entryY=0;entryDx=0;entryDy=0;fontSize=12;startSize=8;endSize=8;" parent="WIyWlLk6GJQsqaUBKTNV-1" source="xKQEIfEpdPocmmlh1qDN-50" target="xKQEIfEpdPocmmlh1qDN-56" edge="1">
          <mxGeometry relative="1" as="geometry" />
        </mxCell>
        <mxCell id="xKQEIfEpdPocmmlh1qDN-50" value="Autofill if `Logged In` AND if `Address` not NULL" style="rounded=0;whiteSpace=wrap;html=1;fontSize=16;labelBackgroundColor=none;" parent="WIyWlLk6GJQsqaUBKTNV-1" vertex="1">
          <mxGeometry x="49" y="1325" width="162" height="65" as="geometry" />
        </mxCell>
        <mxCell id="xKQEIfEpdPocmmlh1qDN-58" style="edgeStyle=none;curved=1;rounded=0;orthogonalLoop=1;jettySize=auto;html=1;entryX=0.5;entryY=0;entryDx=0;entryDy=0;fontSize=12;startSize=8;endSize=8;exitX=1;exitY=1;exitDx=0;exitDy=0;" parent="WIyWlLk6GJQsqaUBKTNV-1" source="0iYnoLVcJNjw29xdgMoQ-23" target="xKQEIfEpdPocmmlh1qDN-50" edge="1">
          <mxGeometry relative="1" as="geometry">
            <mxPoint x="66.83720930232539" y="1269" as="sourcePoint" />
          </mxGeometry>
        </mxCell>
        <mxCell id="xKQEIfEpdPocmmlh1qDN-59" style="edgeStyle=none;curved=1;rounded=0;orthogonalLoop=1;jettySize=auto;html=1;entryX=0.5;entryY=0;entryDx=0;entryDy=0;fontSize=12;startSize=8;endSize=8;" parent="WIyWlLk6GJQsqaUBKTNV-1" source="xKQEIfEpdPocmmlh1qDN-54" target="xKQEIfEpdPocmmlh1qDN-50" edge="1">
          <mxGeometry relative="1" as="geometry" />
        </mxCell>
        <mxCell id="xKQEIfEpdPocmmlh1qDN-54" value="Return `Total`, `Change`. Redirect if `Short`" style="rounded=0;whiteSpace=wrap;html=1;fontSize=16;labelBackgroundColor=none;" parent="WIyWlLk6GJQsqaUBKTNV-1" vertex="1">
          <mxGeometry x="150" y="1209" width="146" height="60" as="geometry" />
        </mxCell>
        <mxCell id="xKQEIfEpdPocmmlh1qDN-62" style="edgeStyle=none;curved=1;rounded=0;orthogonalLoop=1;jettySize=auto;html=1;fontSize=12;startSize=8;endSize=8;" parent="WIyWlLk6GJQsqaUBKTNV-1" source="xKQEIfEpdPocmmlh1qDN-56" target="xKQEIfEpdPocmmlh1qDN-61" edge="1">
          <mxGeometry relative="1" as="geometry" />
        </mxCell>
        <mxCell id="xKQEIfEpdPocmmlh1qDN-56" value="Address, Fullname, Contact No.&lt;br&gt;" style="shape=parallelogram;perimeter=parallelogramPerimeter;whiteSpace=wrap;html=1;fixedSize=1;fontSize=16;rounded=0;labelBackgroundColor=none;" parent="WIyWlLk6GJQsqaUBKTNV-1" vertex="1">
          <mxGeometry x="70" y="1450" width="120" height="60" as="geometry" />
        </mxCell>
        <mxCell id="PnPtJ1oFxIr9ThaWhj_N-2" style="edgeStyle=none;curved=1;rounded=0;orthogonalLoop=1;jettySize=auto;html=1;fontSize=12;startSize=8;endSize=8;" parent="WIyWlLk6GJQsqaUBKTNV-1" source="xKQEIfEpdPocmmlh1qDN-61" target="PnPtJ1oFxIr9ThaWhj_N-1" edge="1">
          <mxGeometry relative="1" as="geometry" />
        </mxCell>
        <mxCell id="xKQEIfEpdPocmmlh1qDN-61" value="Receipt" style="rounded=1;whiteSpace=wrap;html=1;fontSize=16;" parent="WIyWlLk6GJQsqaUBKTNV-1" vertex="1">
          <mxGeometry x="68" y="1570" width="120" height="60" as="geometry" />
        </mxCell>
        <mxCell id="PnPtJ1oFxIr9ThaWhj_N-109" style="edgeStyle=none;curved=1;rounded=0;orthogonalLoop=1;jettySize=auto;html=1;entryX=0;entryY=0.25;entryDx=0;entryDy=0;fontSize=12;startSize=8;endSize=8;" parent="WIyWlLk6GJQsqaUBKTNV-1" source="xKQEIfEpdPocmmlh1qDN-65" target="PnPtJ1oFxIr9ThaWhj_N-105" edge="1">
          <mxGeometry relative="1" as="geometry" />
        </mxCell>
        <mxCell id="xKQEIfEpdPocmmlh1qDN-65" value="Deliver&amp;nbsp; Food" style="text;html=1;strokeColor=none;fillColor=none;align=center;verticalAlign=middle;whiteSpace=wrap;rounded=0;fontSize=16;" parent="WIyWlLk6GJQsqaUBKTNV-1" vertex="1">
          <mxGeometry x="-26" y="785" width="102" height="30" as="geometry" />
        </mxCell>
        <mxCell id="xKQEIfEpdPocmmlh1qDN-66" value="Table Reservation" style="text;html=1;strokeColor=none;fillColor=none;align=center;verticalAlign=middle;whiteSpace=wrap;rounded=0;fontSize=16;" parent="WIyWlLk6GJQsqaUBKTNV-1" vertex="1">
          <mxGeometry x="-250" y="785" width="134" height="30" as="geometry" />
        </mxCell>
        <mxCell id="xKQEIfEpdPocmmlh1qDN-74" style="edgeStyle=none;curved=1;rounded=0;orthogonalLoop=1;jettySize=auto;html=1;fontSize=12;startSize=8;endSize=8;" parent="WIyWlLk6GJQsqaUBKTNV-1" source="xKQEIfEpdPocmmlh1qDN-68" edge="1">
          <mxGeometry relative="1" as="geometry">
            <mxPoint x="-64" y="899.9999999999998" as="targetPoint" />
          </mxGeometry>
        </mxCell>
        <mxCell id="xKQEIfEpdPocmmlh1qDN-68" value="(Table Reservation),&lt;br style=&quot;border-color: var(--border-color);&quot;&gt;(Deliver&lt;br style=&quot;border-color: var(--border-color);&quot;&gt;Food),&lt;br&gt;(Logout), (Settings)" style="rounded=1;whiteSpace=wrap;html=1;fontSize=16;" parent="WIyWlLk6GJQsqaUBKTNV-1" vertex="1">
          <mxGeometry x="-124" y="675" width="120" height="110" as="geometry" />
        </mxCell>
        <mxCell id="PnPtJ1oFxIr9ThaWhj_N-0" value="End" style="ellipse;whiteSpace=wrap;html=1;fontSize=16;" parent="WIyWlLk6GJQsqaUBKTNV-1" vertex="1">
          <mxGeometry x="-101" y="900" width="74" height="40" as="geometry" />
        </mxCell>
        <mxCell id="PnPtJ1oFxIr9ThaWhj_N-1" value="End" style="ellipse;whiteSpace=wrap;html=1;fontSize=16;" parent="WIyWlLk6GJQsqaUBKTNV-1" vertex="1">
          <mxGeometry x="67" y="1675" width="120" height="80" as="geometry" />
        </mxCell>
        <mxCell id="PnPtJ1oFxIr9ThaWhj_N-3" value="Start/Index" style="ellipse;whiteSpace=wrap;html=1;fontSize=16;" parent="WIyWlLk6GJQsqaUBKTNV-1" vertex="1">
          <mxGeometry x="350" y="120" width="127" height="80" as="geometry" />
        </mxCell>
        <mxCell id="PnPtJ1oFxIr9ThaWhj_N-81" value="menu" style="shape=table;startSize=30;container=1;collapsible=0;childLayout=tableLayout;strokeColor=default;fontSize=16;" parent="WIyWlLk6GJQsqaUBKTNV-1" vertex="1">
          <mxGeometry x="267" y="605" width="150" height="90" as="geometry" />
        </mxCell>
        <mxCell id="PnPtJ1oFxIr9ThaWhj_N-82" value="" style="shape=tableRow;horizontal=0;startSize=0;swimlaneHead=0;swimlaneBody=0;strokeColor=inherit;top=0;left=0;bottom=0;right=0;collapsible=0;dropTarget=0;fillColor=none;points=[[0,0.5],[1,0.5]];portConstraint=eastwest;fontSize=16;" parent="PnPtJ1oFxIr9ThaWhj_N-81" vertex="1">
          <mxGeometry y="30" width="150" height="30" as="geometry" />
        </mxCell>
        <mxCell id="PnPtJ1oFxIr9ThaWhj_N-83" value="name" style="shape=partialRectangle;html=1;whiteSpace=wrap;connectable=0;strokeColor=inherit;overflow=hidden;fillColor=none;top=0;left=0;bottom=0;right=0;pointerEvents=1;fontSize=16;" parent="PnPtJ1oFxIr9ThaWhj_N-82" vertex="1">
          <mxGeometry width="51" height="30" as="geometry">
            <mxRectangle width="51" height="30" as="alternateBounds" />
          </mxGeometry>
        </mxCell>
        <mxCell id="PnPtJ1oFxIr9ThaWhj_N-84" value="price" style="shape=partialRectangle;html=1;whiteSpace=wrap;connectable=0;strokeColor=inherit;overflow=hidden;fillColor=none;top=0;left=0;bottom=0;right=0;pointerEvents=1;fontSize=16;" parent="PnPtJ1oFxIr9ThaWhj_N-82" vertex="1">
          <mxGeometry x="51" width="48" height="30" as="geometry">
            <mxRectangle width="48" height="30" as="alternateBounds" />
          </mxGeometry>
        </mxCell>
        <mxCell id="PnPtJ1oFxIr9ThaWhj_N-85" value="type" style="shape=partialRectangle;html=1;whiteSpace=wrap;connectable=0;strokeColor=inherit;overflow=hidden;fillColor=none;top=0;left=0;bottom=0;right=0;pointerEvents=1;fontSize=16;" parent="PnPtJ1oFxIr9ThaWhj_N-82" vertex="1">
          <mxGeometry x="99" width="51" height="30" as="geometry">
            <mxRectangle width="51" height="30" as="alternateBounds" />
          </mxGeometry>
        </mxCell>
        <mxCell id="PnPtJ1oFxIr9ThaWhj_N-86" value="" style="shape=tableRow;horizontal=0;startSize=0;swimlaneHead=0;swimlaneBody=0;strokeColor=inherit;top=0;left=0;bottom=0;right=0;collapsible=0;dropTarget=0;fillColor=none;points=[[0,0.5],[1,0.5]];portConstraint=eastwest;fontSize=16;" parent="PnPtJ1oFxIr9ThaWhj_N-81" vertex="1">
          <mxGeometry y="60" width="150" height="30" as="geometry" />
        </mxCell>
        <mxCell id="PnPtJ1oFxIr9ThaWhj_N-87" value="col1" style="shape=partialRectangle;html=1;whiteSpace=wrap;connectable=0;strokeColor=inherit;overflow=hidden;fillColor=none;top=0;left=0;bottom=0;right=0;pointerEvents=1;fontSize=16;" parent="PnPtJ1oFxIr9ThaWhj_N-86" vertex="1">
          <mxGeometry width="51" height="30" as="geometry">
            <mxRectangle width="51" height="30" as="alternateBounds" />
          </mxGeometry>
        </mxCell>
        <mxCell id="PnPtJ1oFxIr9ThaWhj_N-88" value="col2" style="shape=partialRectangle;html=1;whiteSpace=wrap;connectable=0;strokeColor=inherit;overflow=hidden;fillColor=none;top=0;left=0;bottom=0;right=0;pointerEvents=1;fontSize=16;" parent="PnPtJ1oFxIr9ThaWhj_N-86" vertex="1">
          <mxGeometry x="51" width="48" height="30" as="geometry">
            <mxRectangle width="48" height="30" as="alternateBounds" />
          </mxGeometry>
        </mxCell>
        <mxCell id="PnPtJ1oFxIr9ThaWhj_N-89" value="col3" style="shape=partialRectangle;html=1;whiteSpace=wrap;connectable=0;strokeColor=inherit;overflow=hidden;fillColor=none;top=0;left=0;bottom=0;right=0;pointerEvents=1;fontSize=16;" parent="PnPtJ1oFxIr9ThaWhj_N-86" vertex="1">
          <mxGeometry x="99" width="51" height="30" as="geometry">
            <mxRectangle width="51" height="30" as="alternateBounds" />
          </mxGeometry>
        </mxCell>
        <mxCell id="PnPtJ1oFxIr9ThaWhj_N-95" value="Cart()" style="swimlane;fontStyle=0;childLayout=stackLayout;horizontal=1;startSize=30;horizontalStack=0;resizeParent=1;resizeParentMax=0;resizeLast=0;collapsible=1;marginBottom=0;whiteSpace=wrap;html=1;fontSize=16;" parent="WIyWlLk6GJQsqaUBKTNV-1" vertex="1">
          <mxGeometry x="160" y="840" width="160" height="60" as="geometry" />
        </mxCell>
        <mxCell id="PnPtJ1oFxIr9ThaWhj_N-96" value="Cart(Item())" style="text;strokeColor=none;fillColor=none;align=left;verticalAlign=middle;spacingLeft=4;spacingRight=4;overflow=hidden;points=[[0,0.5],[1,0.5]];portConstraint=eastwest;rotatable=0;whiteSpace=wrap;html=1;fontSize=16;" parent="PnPtJ1oFxIr9ThaWhj_N-95" vertex="1">
          <mxGeometry y="30" width="160" height="30" as="geometry" />
        </mxCell>
        <mxCell id="PnPtJ1oFxIr9ThaWhj_N-114" style="edgeStyle=none;curved=1;rounded=0;orthogonalLoop=1;jettySize=auto;html=1;entryX=-0.014;entryY=-0.117;entryDx=0;entryDy=0;entryPerimeter=0;fontSize=12;startSize=8;endSize=8;exitX=0.25;exitY=0;exitDx=0;exitDy=0;" parent="WIyWlLk6GJQsqaUBKTNV-1" source="PnPtJ1oFxIr9ThaWhj_N-105" target="PnPtJ1oFxIr9ThaWhj_N-82" edge="1">
          <mxGeometry relative="1" as="geometry" />
        </mxCell>
        <mxCell id="PnPtJ1oFxIr9ThaWhj_N-105" value="EachData()" style="swimlane;fontStyle=0;childLayout=stackLayout;horizontal=1;startSize=30;horizontalStack=0;resizeParent=1;resizeParentMax=0;resizeLast=0;collapsible=1;marginBottom=0;whiteSpace=wrap;html=1;fontSize=16;" parent="WIyWlLk6GJQsqaUBKTNV-1" vertex="1">
          <mxGeometry x="107" y="725" width="160" height="60" as="geometry" />
        </mxCell>
        <mxCell id="PnPtJ1oFxIr9ThaWhj_N-106" value="Item(col1, col2, col3)" style="text;strokeColor=none;fillColor=none;align=left;verticalAlign=middle;spacingLeft=4;spacingRight=4;overflow=hidden;points=[[0,0.5],[1,0.5]];portConstraint=eastwest;rotatable=0;whiteSpace=wrap;html=1;fontSize=16;" parent="PnPtJ1oFxIr9ThaWhj_N-105" vertex="1">
          <mxGeometry y="30" width="160" height="30" as="geometry" />
        </mxCell>
        <mxCell id="PnPtJ1oFxIr9ThaWhj_N-117" style="edgeStyle=none;curved=1;rounded=0;orthogonalLoop=1;jettySize=auto;html=1;entryX=1;entryY=0.5;entryDx=0;entryDy=0;fontSize=12;startSize=8;endSize=8;" parent="WIyWlLk6GJQsqaUBKTNV-1" source="PnPtJ1oFxIr9ThaWhj_N-116" target="xKQEIfEpdPocmmlh1qDN-3" edge="1">
          <mxGeometry relative="1" as="geometry" />
        </mxCell>
        <mxCell id="PnPtJ1oFxIr9ThaWhj_N-118" style="edgeStyle=none;curved=1;rounded=0;orthogonalLoop=1;jettySize=auto;html=1;entryX=0;entryY=0.5;entryDx=0;entryDy=0;fontSize=12;startSize=8;endSize=8;" parent="WIyWlLk6GJQsqaUBKTNV-1" source="PnPtJ1oFxIr9ThaWhj_N-116" target="xKQEIfEpdPocmmlh1qDN-4" edge="1">
          <mxGeometry relative="1" as="geometry" />
        </mxCell>
        <mxCell id="PnPtJ1oFxIr9ThaWhj_N-116" value="bredzilog" style="strokeWidth=2;html=1;shape=mxgraph.flowchart.database;whiteSpace=wrap;fontSize=16;" parent="WIyWlLk6GJQsqaUBKTNV-1" vertex="1">
          <mxGeometry x="369" y="280" width="90" height="80" as="geometry" />
        </mxCell>
        <mxCell id="0iYnoLVcJNjw29xdgMoQ-0" value="Cart()" style="swimlane;fontStyle=0;childLayout=stackLayout;horizontal=1;startSize=30;horizontalStack=0;resizeParent=1;resizeParentMax=0;resizeLast=0;collapsible=1;marginBottom=0;whiteSpace=wrap;html=1;fontSize=16;" vertex="1" parent="WIyWlLk6GJQsqaUBKTNV-1">
          <mxGeometry x="-450" y="840" width="160" height="60" as="geometry" />
        </mxCell>
        <mxCell id="0iYnoLVcJNjw29xdgMoQ-1" value="Cart(Item())" style="text;strokeColor=none;fillColor=none;align=left;verticalAlign=middle;spacingLeft=4;spacingRight=4;overflow=hidden;points=[[0,0.5],[1,0.5]];portConstraint=eastwest;rotatable=0;whiteSpace=wrap;html=1;fontSize=16;" vertex="1" parent="0iYnoLVcJNjw29xdgMoQ-0">
          <mxGeometry y="30" width="160" height="30" as="geometry" />
        </mxCell>
        <mxCell id="0iYnoLVcJNjw29xdgMoQ-9" style="edgeStyle=none;curved=1;rounded=0;orthogonalLoop=1;jettySize=auto;html=1;fontSize=12;startSize=8;endSize=8;" edge="1" parent="WIyWlLk6GJQsqaUBKTNV-1" source="0iYnoLVcJNjw29xdgMoQ-5" target="0iYnoLVcJNjw29xdgMoQ-7">
          <mxGeometry relative="1" as="geometry" />
        </mxCell>
        <mxCell id="0iYnoLVcJNjw29xdgMoQ-5" value="Expectied `TIME` to arrive" style="shape=parallelogram;perimeter=parallelogramPerimeter;whiteSpace=wrap;html=1;fixedSize=1;fontSize=16;" vertex="1" parent="WIyWlLk6GJQsqaUBKTNV-1">
          <mxGeometry x="-350" y="965" width="170" height="60" as="geometry" />
        </mxCell>
        <mxCell id="0iYnoLVcJNjw29xdgMoQ-13" style="edgeStyle=none;curved=1;rounded=0;orthogonalLoop=1;jettySize=auto;html=1;fontSize=12;startSize=8;endSize=8;" edge="1" parent="WIyWlLk6GJQsqaUBKTNV-1" source="0iYnoLVcJNjw29xdgMoQ-7" target="0iYnoLVcJNjw29xdgMoQ-10">
          <mxGeometry relative="1" as="geometry" />
        </mxCell>
        <mxCell id="0iYnoLVcJNjw29xdgMoQ-7" value="Process Food 10 minutes before arrival" style="rounded=0;whiteSpace=wrap;html=1;fontSize=16;" vertex="1" parent="WIyWlLk6GJQsqaUBKTNV-1">
          <mxGeometry x="-325" y="1090" width="120" height="60" as="geometry" />
        </mxCell>
        <mxCell id="0iYnoLVcJNjw29xdgMoQ-11" style="edgeStyle=none;curved=1;rounded=0;orthogonalLoop=1;jettySize=auto;html=1;entryX=0;entryY=0.5;entryDx=0;entryDy=0;fontSize=12;startSize=8;endSize=8;exitX=1;exitY=0.5;exitDx=0;exitDy=0;" edge="1" parent="WIyWlLk6GJQsqaUBKTNV-1" source="0iYnoLVcJNjw29xdgMoQ-10" target="xKQEIfEpdPocmmlh1qDN-40">
          <mxGeometry relative="1" as="geometry">
            <Array as="points">
              <mxPoint x="-80" y="1220" />
            </Array>
          </mxGeometry>
        </mxCell>
        <mxCell id="0iYnoLVcJNjw29xdgMoQ-19" style="edgeStyle=none;curved=1;rounded=0;orthogonalLoop=1;jettySize=auto;html=1;entryX=0.5;entryY=0;entryDx=0;entryDy=0;fontSize=12;startSize=8;endSize=8;" edge="1" parent="WIyWlLk6GJQsqaUBKTNV-1" source="0iYnoLVcJNjw29xdgMoQ-10" target="0iYnoLVcJNjw29xdgMoQ-15">
          <mxGeometry relative="1" as="geometry" />
        </mxCell>
        <mxCell id="0iYnoLVcJNjw29xdgMoQ-10" value="Gcash Payment?" style="rhombus;whiteSpace=wrap;html=1;fontSize=16;" vertex="1" parent="WIyWlLk6GJQsqaUBKTNV-1">
          <mxGeometry x="-312.5" y="1194" width="95" height="90" as="geometry" />
        </mxCell>
        <mxCell id="0iYnoLVcJNjw29xdgMoQ-21" style="edgeStyle=none;curved=1;rounded=0;orthogonalLoop=1;jettySize=auto;html=1;entryX=1;entryY=0;entryDx=0;entryDy=0;fontSize=12;startSize=8;endSize=8;exitX=0.589;exitY=0.988;exitDx=0;exitDy=0;exitPerimeter=0;" edge="1" parent="WIyWlLk6GJQsqaUBKTNV-1" source="0iYnoLVcJNjw29xdgMoQ-12" target="0iYnoLVcJNjw29xdgMoQ-15">
          <mxGeometry relative="1" as="geometry">
            <mxPoint x="-110" y="1210" as="sourcePoint" />
          </mxGeometry>
        </mxCell>
        <mxCell id="0iYnoLVcJNjw29xdgMoQ-12" value="True" style="text;html=1;strokeColor=none;fillColor=none;align=center;verticalAlign=middle;whiteSpace=wrap;rounded=0;fontSize=16;labelBackgroundColor=none;" vertex="1" parent="WIyWlLk6GJQsqaUBKTNV-1">
          <mxGeometry x="-150" y="1179" width="60" height="30" as="geometry" />
        </mxCell>
        <mxCell id="0iYnoLVcJNjw29xdgMoQ-14" style="edgeStyle=none;curved=1;rounded=0;orthogonalLoop=1;jettySize=auto;html=1;fontSize=12;startSize=8;endSize=8;" edge="1" parent="WIyWlLk6GJQsqaUBKTNV-1" source="0iYnoLVcJNjw29xdgMoQ-15" target="0iYnoLVcJNjw29xdgMoQ-17">
          <mxGeometry relative="1" as="geometry" />
        </mxCell>
        <mxCell id="0iYnoLVcJNjw29xdgMoQ-28" style="edgeStyle=none;curved=1;rounded=0;orthogonalLoop=1;jettySize=auto;html=1;entryX=0;entryY=1;entryDx=0;entryDy=0;fontSize=12;startSize=8;endSize=8;" edge="1" parent="WIyWlLk6GJQsqaUBKTNV-1" source="0iYnoLVcJNjw29xdgMoQ-15" target="xKQEIfEpdPocmmlh1qDN-50">
          <mxGeometry relative="1" as="geometry" />
        </mxCell>
        <mxCell id="0iYnoLVcJNjw29xdgMoQ-15" value="Fullname, Contact No." style="shape=parallelogram;perimeter=parallelogramPerimeter;whiteSpace=wrap;html=1;fixedSize=1;fontSize=16;rounded=0;labelBackgroundColor=none;" vertex="1" parent="WIyWlLk6GJQsqaUBKTNV-1">
          <mxGeometry x="-325" y="1320" width="120" height="60" as="geometry" />
        </mxCell>
        <mxCell id="0iYnoLVcJNjw29xdgMoQ-27" style="edgeStyle=none;curved=1;rounded=0;orthogonalLoop=1;jettySize=auto;html=1;entryX=0.5;entryY=0;entryDx=0;entryDy=0;fontSize=12;startSize=8;endSize=8;" edge="1" parent="WIyWlLk6GJQsqaUBKTNV-1" source="0iYnoLVcJNjw29xdgMoQ-17" target="0iYnoLVcJNjw29xdgMoQ-18">
          <mxGeometry relative="1" as="geometry" />
        </mxCell>
        <mxCell id="0iYnoLVcJNjw29xdgMoQ-17" value="Receipt" style="rounded=1;whiteSpace=wrap;html=1;fontSize=16;" vertex="1" parent="WIyWlLk6GJQsqaUBKTNV-1">
          <mxGeometry x="-325" y="1420" width="120" height="60" as="geometry" />
        </mxCell>
        <mxCell id="0iYnoLVcJNjw29xdgMoQ-18" value="End" style="ellipse;whiteSpace=wrap;html=1;fontSize=16;" vertex="1" parent="WIyWlLk6GJQsqaUBKTNV-1">
          <mxGeometry x="-325" y="1540" width="120" height="80" as="geometry" />
        </mxCell>
        <mxCell id="0iYnoLVcJNjw29xdgMoQ-24" value="" style="edgeStyle=none;curved=1;rounded=0;orthogonalLoop=1;jettySize=auto;html=1;fontSize=12;startSize=8;endSize=8;exitX=0;exitY=0;exitDx=0;exitDy=0;entryX=0.615;entryY=0.981;entryDx=0;entryDy=0;entryPerimeter=0;" edge="1" parent="WIyWlLk6GJQsqaUBKTNV-1" source="0iYnoLVcJNjw29xdgMoQ-23" target="0iYnoLVcJNjw29xdgMoQ-12">
          <mxGeometry relative="1" as="geometry" />
        </mxCell>
        <mxCell id="0iYnoLVcJNjw29xdgMoQ-23" value="Verify Reference Number" style="rhombus;whiteSpace=wrap;html=1;fontSize=16;" vertex="1" parent="WIyWlLk6GJQsqaUBKTNV-1">
          <mxGeometry x="-18.5" y="1209" width="103" height="90" as="geometry" />
        </mxCell>
      </root>
    </mxGraphModel>
  </diagram>
</mxfile>
